<svg xmlns="http://www.w3.org/2000/svg" xmlns:xlink="http://www.w3.org/1999/xlink" width="1100" height="1100" viewBox="0 0 1100 1100">
  <defs>
    <filter id="SOJ" x="232.696" y="122.612" width="634.138" height="856.847" filterUnits="userSpaceOnUse">
      <feOffset dy="3" input="SourceAlpha"/>
      <feGaussianBlur stdDeviation="3" result="blur"/>
      <feFlood flood-opacity="0.502"/>
      <feComposite operator="in" in2="blur"/>
      <feComposite in="SourceGraphic"/>
    </filter>
    <clipPath id="clip-custom_1">
      <rect width="1100" height="1100"/>
    </clipPath>
  </defs>
  <g id="custom_1" data-name="custom – 1" clip-path="url(#clip-custom_1)">
    <rect width="1100" height="1100" fill="#fff"/>
    <g transform="matrix(1, 0, 0, 1, 0, 0)" filter="url(#SOJ)">
      <path id="SOJ-2" data-name="SOJ" d="M122.052,546.731,128.721,550Zm0,0L-204,386.9l326.052,159.83L115.491,550Zm0,0L356.877,429.708V200.746l8.337,4.3-8.337-4.3V429.708l4.078-2.032-4.078,2.032ZM356.877,429.708v0ZM-166.488,100.365l322.12,165.027ZM34.757,34.608l322.12,166.139Zm-201.245,65.758-8.97-4.6,8.97,4.6v0Zm0,0v-230.08L71.138-248.528,74.083-250l-2.945,1.472L394.39-86.9,71.138-248.528-166.488-129.715Zm0-230.08-4.077,2.038ZM68.193-250l2.945,1.472Z" transform="translate(454.5 399.5)" fill="#fff" stroke="#000" stroke-width="40"/>
    </g>
  </g>
</svg>
